<?xml version="1.0" standalone="no"?>
<!DOCTYPE svg PUBLIC "-//W3C//DTD SVG 20010904//EN"
 "http://www.w3.org/TR/2001/REC-SVG-20010904/DTD/svg10.dtd">
<svg version="1.0" xmlns="http://www.w3.org/2000/svg"
 width="260.000000pt" height="260.000000pt" viewBox="0 0 260.000000 260.000000"
 preserveAspectRatio="xMidYMid meet">
<metadata>
Created by potrace 1.14, written by Peter Selinger 2001-2017
</metadata>
<g transform="translate(0.000000,260.000000) scale(0.100000,-0.100000)"
fill="#000000" stroke="none">
<path d="M1220 2588 c-19 -5 -43 -10 -54 -13 -10 -2 -24 -9 -30 -15 -7 -5 -16
-7 -19 -3 -4 3 -7 2 -7 -4 0 -10 -49 -38 -62 -35 -5 1 -8 -3 -8 -10 0 -6 -3
-8 -7 -5 -3 4 -15 0 -25 -10 -10 -9 -21 -14 -24 -10 -3 3 -15 -3 -27 -14 -11
-10 -27 -19 -34 -19 -7 0 -13 -4 -13 -9 0 -5 -13 -12 -30 -16 -16 -4 -30 -11
-30 -16 0 -6 -4 -7 -10 -4 -5 3 -10 2 -10 -3 0 -4 -16 -15 -35 -22 -20 -8 -41
-20 -47 -27 -5 -7 -14 -10 -19 -7 -5 3 -9 0 -9 -7 0 -7 -3 -9 -6 -6 -4 4 -19
-2 -33 -11 -14 -10 -44 -27 -66 -37 -22 -11 -57 -30 -77 -42 -21 -13 -44 -23
-53 -23 -8 0 -15 -4 -15 -10 0 -5 -12 -13 -27 -16 -16 -4 -35 -15 -44 -25 -9
-10 -19 -15 -23 -12 -4 4 -10 3 -14 -2 -4 -6 -34 -24 -67 -40 -33 -16 -62 -33
-63 -37 -2 -4 -10 -8 -18 -8 -8 0 -21 -6 -29 -12 -55 -47 -90 -83 -87 -90 1
-5 -5 -11 -13 -14 -8 -4 -15 -12 -15 -20 0 -8 -5 -14 -11 -14 -6 0 -9 -6 -6
-14 3 -8 1 -16 -4 -18 -30 -10 -36 -115 -33 -618 2 -504 3 -545 20 -571 4 -8
9 -20 11 -28 1 -8 7 -17 13 -21 7 -4 12 -11 12 -16 1 -19 11 -34 19 -28 5 3 9
-4 9 -15 0 -12 7 -21 15 -21 8 0 15 -8 15 -17 0 -9 3 -14 6 -10 3 3 17 -5 31
-19 22 -22 34 -28 49 -21 3 1 10 -6 15 -16 6 -9 17 -17 24 -17 8 0 15 -5 15
-11 0 -5 4 -8 9 -4 5 3 16 -2 25 -11 9 -8 20 -12 26 -9 5 3 10 -1 10 -10 0 -9
5 -13 10 -10 6 3 22 -3 36 -14 15 -11 30 -18 35 -15 5 3 9 2 9 -3 0 -9 61 -39
73 -35 4 1 7 -2 7 -7 0 -8 66 -45 82 -46 4 0 13 -6 19 -13 7 -6 19 -12 26 -12
7 0 13 -5 13 -11 0 -5 5 -7 10 -4 6 3 10 1 10 -6 0 -7 3 -9 7 -6 3 4 15 0 25
-10 10 -9 18 -13 18 -9 0 4 12 -1 28 -12 15 -10 42 -24 59 -31 18 -8 33 -18
33 -23 0 -5 5 -6 10 -3 6 3 12 0 15 -7 3 -8 15 -15 27 -15 12 -1 25 -8 29 -15
5 -7 9 -9 9 -4 0 4 15 -3 33 -16 43 -33 99 -60 91 -45 -3 7 1 5 8 -3 36 -40
60 -45 230 -48 159 -4 168 -3 217 21 28 13 47 28 43 32 -4 5 1 5 11 2 9 -4 17
-2 17 3 0 6 6 10 14 10 7 0 25 10 40 21 15 12 30 19 33 15 3 -3 13 2 22 12 9
9 25 19 36 20 11 2 22 7 25 11 3 3 34 21 70 40 36 18 88 46 116 62 28 15 54
25 58 22 3 -4 6 -1 6 6 0 7 4 10 9 7 5 -3 12 1 15 10 3 8 10 12 16 9 5 -3 10
-1 10 5 0 6 4 9 9 5 6 -3 14 3 20 12 6 10 11 14 11 10 0 -5 20 3 45 17 25 15
45 24 45 21 0 -3 10 3 22 14 11 11 25 18 30 15 4 -3 8 0 8 6 0 6 4 9 9 6 5 -3
14 1 21 9 7 8 16 12 21 9 5 -3 9 0 9 6 0 6 5 8 10 5 6 -3 10 -1 10 5 0 10 43
33 65 35 6 0 21 10 34 22 13 12 28 20 33 17 4 -3 8 0 8 5 0 14 37 51 51 51 5
0 8 4 4 9 -3 6 3 14 12 20 10 6 14 11 10 11 -5 0 1 13 13 30 12 16 22 39 23
50 1 11 5 20 9 20 4 0 7 10 6 23 -1 12 2 37 6 56 7 27 5 32 -5 25 -11 -6 -12
-5 -3 7 12 17 13 926 1 947 -5 7 -3 12 4 12 7 0 5 9 -6 26 -9 15 -12 23 -6 20
6 -4 11 -2 11 3 0 6 -4 11 -10 11 -5 0 -10 9 -10 20 0 11 -5 20 -11 20 -5 0
-8 4 -5 8 14 23 -111 161 -155 170 -8 2 -20 11 -27 20 -7 9 -14 15 -15 13 -2
-5 -80 30 -87 40 -3 3 -22 12 -42 20 -21 7 -38 17 -38 22 0 4 -4 5 -10 2 -5
-3 -10 -2 -10 2 0 5 -31 24 -70 43 -38 19 -70 37 -70 42 0 4 -3 8 -7 7 -16 -2
-53 14 -53 23 0 5 -4 7 -9 3 -5 -3 -17 2 -25 11 -9 8 -16 13 -16 10 0 -4 -17
4 -37 17 -21 13 -53 29 -70 36 -18 8 -33 17 -33 22 0 5 -7 9 -15 9 -8 0 -15 4
-15 10 0 5 -7 7 -15 4 -8 -4 -15 -1 -15 6 0 6 -5 8 -10 5 -6 -3 -13 1 -16 10
-4 9 -13 14 -20 11 -8 -3 -14 -2 -14 2 0 4 -27 20 -60 35 -33 16 -62 33 -66
38 -3 5 -10 7 -15 4 -5 -4 -9 -1 -9 4 0 6 -7 11 -15 11 -8 0 -15 5 -15 10 0 6
-3 9 -7 9 -5 -1 -11 0 -15 1 -5 1 -12 4 -18 5 -5 1 -11 3 -12 5 -18 13 -162
19 -208 8z"/>
</g>
</svg>
