<svg width="2207" height="472" viewBox="0 0 2207 472" fill="none" xmlns="http://www.w3.org/2000/svg">
<path d="M1155.52 215.99C1179.15 192.92 1190.97 162.63 1190.97 125.12C1190.97 87.6101 1179.15 57.67 1155.52 34.6C1132.12 11.53 1101.04 0 1062.28 0H984.641V250.23H1062.28C1101.04 250.23 1132.12 238.81 1155.52 215.98V215.99ZM1017.25 30.76H1062.28C1091.82 30.76 1115.1 39.15 1132.12 55.92C1149.14 72.7 1157.64 95.7601 1157.64 125.12C1157.64 154.48 1149.14 177.89 1132.12 194.67C1115.1 211.21 1091.82 219.48 1062.28 219.48H1017.25V30.76Z" fill="#633DB7"></path>
<path d="M1296.88 255.831C1314.37 255.831 1329.97 251.751 1343.68 243.601C1357.63 235.441 1368.5 224.141 1376.3 209.701L1347.23 195.721C1335.41 216.221 1319.1 226.471 1298.3 226.471C1283.18 226.471 1270.18 221.341 1259.31 211.091C1248.43 200.841 1242.76 187.321 1242.29 170.551H1378.78L1379.13 167.051C1379.13 137.461 1371.45 114.511 1356.09 98.2006C1340.96 81.6606 1320.52 73.3906 1294.76 73.3906C1269 73.3906 1249.14 82.1306 1233.07 99.6006C1217 116.841 1208.96 138.511 1208.96 164.601C1208.96 190.691 1217.24 212.711 1233.78 229.951C1250.32 247.191 1271.36 255.811 1296.88 255.811V255.831ZM1262.14 113.941C1271.12 106.481 1281.76 102.761 1294.05 102.761C1308.94 102.761 1320.76 106.721 1329.5 114.641C1338.48 122.331 1343.45 132.111 1344.39 144.001H1244.77C1247.61 131.421 1253.4 121.401 1262.14 113.951V113.941Z" fill="#633DB7"></path>
<path d="M1489.87 250.238L1560.78 78.9883H1526.03L1474.27 211.798H1473.57L1422.52 78.9883H1387.06L1457.26 250.238H1489.87Z" fill="#633DB7"></path>
<path d="M1620.35 142.948H1724.58V112.888H1620.35V30.7578H1735.93V0.0078125H1587.74V250.238H1620.35V142.948Z" fill="#633DB7"></path>
<path d="M1834.55 255.831C1852.04 255.831 1867.64 251.751 1881.35 243.601C1895.29 235.441 1906.16 224.141 1913.96 209.701L1884.89 195.721C1873.08 216.221 1856.77 226.471 1835.97 226.471C1820.84 226.471 1807.84 221.341 1796.97 211.091C1786.1 200.841 1780.43 187.321 1779.95 170.551H1916.44L1916.8 167.051C1916.8 137.461 1909.12 114.511 1893.76 98.2006C1878.63 81.6606 1858.19 73.3906 1832.42 73.3906C1806.65 73.3906 1786.81 82.1306 1770.74 99.6006C1754.67 116.841 1746.63 138.511 1746.63 164.601C1746.63 190.691 1754.9 212.711 1771.45 229.951C1787.99 247.191 1809.02 255.811 1834.55 255.811V255.831ZM1799.81 113.941C1808.79 106.481 1819.42 102.761 1831.71 102.761C1846.6 102.761 1858.42 106.721 1867.17 114.641C1876.15 122.331 1881.11 132.111 1882.06 144.001H1782.44C1785.27 131.421 1791.06 121.401 1799.81 113.951V113.941Z" fill="#633DB7"></path>
<path d="M2037.35 220.531C2030.5 224.961 2021.87 227.171 2011.47 227.171C2001.78 227.171 1992.8 224.371 1984.53 218.781C1976.49 212.951 1970.35 204.921 1966.09 194.671L1937.02 206.901C1942.69 221.581 1952.15 233.461 1965.38 242.551C1978.62 251.401 1993.98 255.831 2011.47 255.831C2031.56 255.831 2048.22 250.701 2061.46 240.451C2074.69 230.201 2081.31 217.621 2081.31 202.701C2081.31 176.841 2064.06 159.711 2029.55 151.331L2003.32 144.691C1984.65 140.501 1975.31 133.511 1975.31 123.721C1975.31 117.661 1978.62 112.541 1985.24 108.341C1992.09 104.151 1999.77 102.051 2008.28 102.051C2017.5 102.051 2025.77 104.151 2033.1 108.341C2040.66 112.301 2046.1 117.891 2049.41 125.111L2078.48 113.231C2073.51 101.111 2064.77 91.4406 2052.24 84.2206C2039.95 77.0006 2026.13 73.3906 2010.76 73.3906C1990.67 73.3906 1974.13 78.1706 1961.13 87.7206C1948.37 97.0406 1941.99 109.511 1941.99 125.121C1941.99 148.891 1958.88 164.961 1992.68 173.351L2022.46 180.691C2039.48 185.821 2047.99 193.851 2047.99 204.801C2047.99 210.861 2044.44 216.101 2037.35 220.531Z" fill="#633DB7"></path>
<path d="M2127.11 204.108C2127.35 219.488 2132.08 231.488 2141.3 240.108C2150.75 248.728 2162.57 253.038 2176.75 253.038C2188.09 253.038 2198.02 251.518 2206.53 248.498L2196.25 219.838C2194.12 220.768 2191.76 221.588 2189.16 222.288C2186.79 222.758 2184.31 222.988 2181.71 222.988C2176.04 222.988 2170.96 221.008 2166.47 217.048C2161.98 212.858 2159.73 205.048 2159.73 193.628V108.358H2202.27V78.9981H2159.73V26.5781H2127.11V78.9981H2096.62V108.358H2127.11V204.118V204.108Z" fill="#633DB7"></path>
<path d="M1002.15 410.908H1032.78C1045.4 410.908 1056 406.878 1064.6 398.798C1073.48 390.718 1077.91 380.658 1077.91 368.618C1077.91 356.578 1073.48 346.838 1064.6 338.638C1055.87 330.428 1045.27 326.328 1032.78 326.328H983.633V468.508H1002.15V410.918V410.908ZM1002.15 343.798H1033.18C1040.56 343.798 1046.68 346.318 1051.5 351.348C1056.47 356.248 1058.96 362.008 1058.96 368.628C1058.96 375.248 1056.47 381.208 1051.5 386.098C1046.68 390.998 1040.56 393.448 1033.18 393.448H1002.15V343.808V343.798Z" fill="#633DB7"></path>
<path d="M1178.07 421.24C1178.07 404.42 1173.71 391.38 1164.98 382.12C1156.39 372.72 1144.77 368.02 1130.14 368.02C1115.51 368.02 1104.21 372.98 1095.08 382.91C1085.95 392.71 1081.38 405.02 1081.38 419.85C1081.38 434.68 1086.08 447.18 1095.48 456.98C1104.88 466.77 1116.84 471.68 1131.34 471.68C1141.28 471.68 1150.15 469.36 1157.93 464.74C1165.86 460.11 1172.03 453.68 1176.47 445.47L1159.95 437.529C1153.24 449.179 1143.97 455 1132.16 455C1123.57 455 1116.18 452.1 1110 446.27C1103.81 440.43 1100.6 432.76 1100.33 423.23H1177.88L1178.08 421.24H1178.07ZM1101.72 408.14C1103.34 400.99 1106.62 395.29 1111.6 391.06C1116.71 386.82 1122.75 384.71 1129.73 384.71C1138.19 384.71 1144.9 386.96 1149.87 391.46C1154.96 395.83 1157.79 401.39 1158.33 408.15H1101.72V408.14Z" fill="#633DB7"></path>
<path d="M1195.01 371.198V468.498H1213.55V414.878C1213.55 407.478 1216.1 400.978 1221.21 395.418C1226.44 389.858 1232.56 387.078 1239.54 387.078C1244.5 387.078 1248.13 387.538 1250.42 388.468L1256.05 370.798C1252.29 369.208 1247.73 368.418 1242.35 368.418C1236.97 368.418 1230.93 370.268 1225.03 373.978C1219.26 377.548 1215.42 381.918 1213.55 387.088H1212.75V371.198H1195.01Z" fill="#633DB7"></path>
<path d="M1268.19 371.198V468.498H1286.73V414.878C1286.73 407.478 1289.27 400.978 1294.38 395.418C1299.62 389.858 1305.73 387.078 1312.71 387.078C1317.68 387.078 1321.3 387.538 1323.59 388.468L1329.24 370.798C1325.47 369.208 1320.9 368.418 1315.54 368.418C1309.89 368.418 1304.12 370.268 1298.21 373.978C1292.44 377.548 1288.62 381.918 1286.74 387.088H1285.93V371.198H1268.2H1268.19Z" fill="#633DB7"></path>
<path d="M1380.4 368.02C1365.75 368.02 1353.61 372.92 1343.94 382.71C1334.4 392.51 1329.65 404.88 1329.65 419.85C1329.65 434.82 1334.41 447.18 1343.94 456.98C1353.61 466.77 1365.76 471.68 1380.4 471.68C1395.04 471.68 1407.12 466.78 1416.66 456.98C1426.32 447.32 1431.16 434.94 1431.16 419.85C1431.16 404.76 1426.32 392.51 1416.66 382.71C1407.12 372.91 1395.03 368.02 1380.4 368.02ZM1403.35 445.27C1397.18 451.76 1389.53 455 1380.4 455C1371.27 455 1363.61 451.76 1357.43 445.27C1351.26 438.79 1348.16 430.31 1348.16 419.86C1348.16 409.41 1351.25 401.13 1357.43 394.64C1363.74 388.02 1371.4 384.71 1380.4 384.71C1389.4 384.71 1397.04 388.02 1403.35 394.64C1409.54 401.13 1412.62 409.54 1412.62 419.86C1412.62 430.18 1409.54 438.79 1403.35 445.27Z" fill="#633DB7"></path>
<path d="M1497.57 451.618C1493.67 454.148 1488.77 455.398 1482.86 455.398C1477.36 455.398 1472.25 453.808 1467.55 450.628C1462.98 447.318 1459.5 442.748 1457.08 436.928L1440.56 443.868C1443.79 452.218 1449.15 458.958 1456.68 464.118C1464.21 469.158 1472.93 471.668 1482.86 471.668C1494.28 471.668 1503.75 468.748 1511.26 462.928C1518.79 457.108 1522.54 449.958 1522.54 441.488C1522.54 426.788 1512.75 417.058 1493.14 412.288L1478.22 408.518C1467.61 406.138 1462.3 402.168 1462.3 396.608C1462.3 393.168 1464.19 390.248 1467.95 387.868C1471.84 385.488 1476.2 384.298 1481.04 384.298C1486.28 384.298 1490.98 385.488 1495.14 387.868C1499.44 390.118 1502.52 393.298 1504.39 397.398L1520.91 390.648C1518.09 383.768 1513.13 378.268 1506.01 374.168C1499.03 370.068 1491.16 368.008 1482.43 368.008C1471.01 368.008 1461.62 370.718 1454.23 376.148C1446.97 381.438 1443.35 388.528 1443.35 397.398C1443.35 410.898 1452.96 420.038 1472.15 424.798L1489.06 428.968C1498.73 431.868 1503.57 436.448 1503.57 442.668C1503.57 446.108 1501.56 449.088 1497.53 451.598L1497.57 451.618Z" fill="#633DB7"></path>
<path d="M1603.13 399.398H1538.67V414.488H1603.13V399.398Z" fill="#633DB7"></path>
<path d="M1696.73 340.621C1704.78 340.621 1712.31 342.141 1719.29 345.191C1726.41 348.101 1732.18 352.211 1736.61 357.501L1749.9 344.391C1743.86 337.641 1736.13 332.411 1726.74 328.701C1717.34 324.991 1707.33 323.141 1696.72 323.141C1675.77 323.141 1658.04 330.291 1643.54 344.591C1629.03 358.891 1621.79 376.491 1621.79 397.411C1621.79 418.331 1629.03 435.931 1643.54 450.241C1658.04 464.531 1675.76 471.681 1696.72 471.681C1717.68 471.681 1736.26 464.671 1749.69 450.631C1761.65 438.851 1767.62 423.031 1767.62 403.171C1767.62 399.731 1767.28 396.151 1766.62 392.451H1696.72V409.531H1749.1C1747.61 423.421 1742.12 434.351 1732.58 442.291C1723.04 450.231 1711.1 454.211 1696.72 454.211C1681.01 454.211 1667.71 448.851 1656.84 438.121C1646.1 427.271 1640.72 413.691 1640.72 397.411C1640.72 381.131 1646.1 367.561 1656.84 356.701C1667.72 345.981 1681.01 340.621 1696.72 340.621H1696.73Z" fill="#633DB7"></path>
<path d="M1823.8 471.679C1830.11 471.679 1836.15 470.089 1841.93 466.909C1847.83 463.739 1852.2 459.759 1855.02 454.989H1855.83V468.499H1873.56V371.199H1855.02V425.009C1855.02 433.209 1852.53 440.299 1847.56 446.259C1842.59 452.079 1836.41 454.989 1829.04 454.989C1813.19 454.989 1805.06 447.049 1804.65 431.169V371.199H1786.12V432.359C1786.12 444.939 1789.35 454.669 1795.79 461.539C1802.37 468.299 1811.71 471.669 1823.8 471.669V471.679Z" fill="#633DB7"></path>
<path d="M1920.08 337.638C1920.08 334.068 1918.8 331.018 1916.24 328.508C1913.69 325.988 1910.61 324.738 1906.97 324.738C1903.33 324.738 1900.26 325.998 1897.72 328.508C1895.17 331.028 1893.88 334.068 1893.88 337.638C1893.88 341.208 1895.16 344.258 1897.72 346.768C1900.26 349.288 1903.35 350.538 1906.97 350.538C1910.59 350.538 1913.68 349.278 1916.24 346.768C1918.79 344.248 1920.08 341.208 1920.08 337.638Z" fill="#633DB7"></path>
<path d="M1916.24 371.199H1897.72V468.499H1916.24V371.199Z" fill="#633DB7"></path>
<path d="M1940.36 371.198V468.498H1958.9V414.878C1958.9 407.478 1961.45 400.978 1966.56 395.418C1971.79 389.858 1977.91 387.078 1984.88 387.078C1989.85 387.078 1993.49 387.538 1995.77 388.468L2001.4 370.798C1997.64 369.208 1993.08 368.418 1987.7 368.418C1982.32 368.418 1976.28 370.268 1970.38 373.978C1964.61 377.548 1960.77 381.918 1958.9 387.088H1958.09V371.198H1940.36Z" fill="#633DB7"></path>
<path d="M2098.5 421.24C2098.5 404.42 2094.14 391.38 2085.41 382.12C2076.8 372.72 2065.2 368.02 2050.55 368.02C2035.9 368.02 2024.64 372.98 2015.5 382.91C2006.37 392.71 2001.8 405.02 2001.8 419.85C2001.8 434.68 2006.5 447.18 2015.9 456.98C2025.29 466.77 2037.25 471.68 2051.76 471.68C2061.69 471.68 2070.55 469.36 2078.35 464.74C2086.27 460.11 2092.44 453.68 2096.87 445.47L2080.36 437.529C2073.65 449.179 2064.38 455 2052.56 455C2043.97 455 2036.58 452.1 2030.4 446.27C2024.23 440.43 2021 432.76 2020.73 423.23H2098.29L2098.49 421.24H2098.5ZM2022.15 408.14C2023.76 400.99 2027.05 395.29 2032.01 391.06C2037.12 386.82 2043.16 384.71 2050.14 384.71C2058.61 384.71 2065.33 386.96 2070.28 391.46C2075.39 395.83 2078.21 401.39 2078.74 408.15H2022.15V408.14Z" fill="#633DB7"></path>
<path d="M2205.46 443.687L2188.94 436.727C2183.44 448.917 2173.9 454.997 2160.34 454.997C2151.88 454.997 2144.56 451.617 2138.39 444.877C2132.35 438.117 2129.32 429.787 2129.32 419.857C2129.32 409.927 2132.35 401.587 2138.39 394.837C2144.56 388.087 2151.89 384.707 2160.34 384.707C2173.5 384.707 2182.7 390.797 2187.94 402.977L2204.85 396.027C2201.09 387.287 2195.45 380.467 2187.94 375.577C2180.41 370.547 2171.62 368.027 2161.55 368.027C2146.91 368.027 2134.76 372.927 2125.09 382.717C2115.55 392.517 2110.78 404.887 2110.78 419.857C2110.78 434.827 2115.55 446.927 2125.09 456.987C2134.76 466.777 2146.91 471.687 2161.55 471.687C2171.75 471.687 2180.68 469.237 2188.34 464.337C2196.12 459.307 2201.84 452.417 2205.46 443.697V443.687Z" fill="#633DB7"></path>
<path d="M525.242 134.501L774.842 276.501C808.992 295.951 852.722 284.431 872.552 250.641C892.372 216.851 880.482 173.831 846.332 154.381L596.732 12.2706C562.582 -7.17938 518.852 4.3406 499.022 38.1306C479.312 71.8106 490.982 114.951 525.242 134.501Z" fill="#633DB7"></path>
<path d="M594.435 420.858L816.545 294.308C801.015 295.468 784.985 292.188 770.495 283.928L659.585 220.828L522.945 298.628C488.795 318.078 477.015 361.208 496.725 394.998C516.445 428.788 560.175 440.308 594.435 420.858Z" fill="#633DB7"></path>
<path d="M285.411 418.687C319.671 438.137 363.401 426.617 383.111 392.827C402.831 359.037 391.041 315.907 356.891 296.457L107.291 154.347C73.0314 134.787 29.3014 146.307 9.58143 180.097C-10.1386 213.887 1.54146 256.917 35.8015 276.467L285.401 418.687H285.411Z" fill="#633DB7"></path>
<path d="M111.654 146.918L222.414 209.978L359.104 132.208C393.364 112.648 405.144 69.6276 385.324 35.8376C365.494 2.04763 321.764 -9.47235 287.624 9.97765L65.4844 136.458C81.0444 135.298 97.1244 138.608 111.664 146.918H111.654Z" fill="#633DB7"></path>
</svg>